<mxfile host="app.diagrams.net" modified="2022-05-29T19:57:41.043Z" agent="5.0 (Windows NT 10.0; Win64; x64) AppleWebKit/537.36 (KHTML, like Gecko) Chrome/102.0.0.0 Safari/537.36" etag="pm4dqFHFGrvnuyT8-bDT" version="18.1.3" type="github">
  <diagram id="R2lEEEUBdFMjLlhIrx00" name="Page-1">
    <mxGraphModel dx="1888" dy="547" grid="1" gridSize="10" guides="1" tooltips="1" connect="1" arrows="1" fold="1" page="1" pageScale="1" pageWidth="850" pageHeight="1100" math="0" shadow="0" extFonts="Permanent Marker^https://fonts.googleapis.com/css?family=Permanent+Marker">
      <root>
        <mxCell id="0" />
        <mxCell id="1" parent="0" />
        <mxCell id="MSUiS18jvthD32c3BEqJ-2" value="&lt;span&gt;P_ID&lt;/span&gt;" style="ellipse;whiteSpace=wrap;html=1;fontStyle=0" vertex="1" parent="1">
          <mxGeometry x="10" y="10" width="90" height="50" as="geometry" />
        </mxCell>
        <mxCell id="MSUiS18jvthD32c3BEqJ-3" value="PHONE_NO" style="ellipse;whiteSpace=wrap;html=1;container=1;" vertex="1" parent="1">
          <mxGeometry x="210" y="10" width="90" height="50" as="geometry" />
        </mxCell>
        <mxCell id="MSUiS18jvthD32c3BEqJ-4" value="ID_PROOF" style="ellipse;whiteSpace=wrap;html=1;" vertex="1" parent="1">
          <mxGeometry x="-90" y="10" width="90" height="50" as="geometry" />
        </mxCell>
        <mxCell id="MSUiS18jvthD32c3BEqJ-6" value="ADDRESS" style="ellipse;whiteSpace=wrap;html=1;" vertex="1" parent="1">
          <mxGeometry x="110" y="10" width="90" height="50" as="geometry" />
        </mxCell>
        <mxCell id="MSUiS18jvthD32c3BEqJ-1" value="PASSENGER" style="rounded=0;whiteSpace=wrap;html=1;" vertex="1" parent="1">
          <mxGeometry x="60" y="120" width="120" height="60" as="geometry" />
        </mxCell>
        <mxCell id="MSUiS18jvthD32c3BEqJ-5" value="NAME" style="ellipse;whiteSpace=wrap;html=1;" vertex="1" parent="1">
          <mxGeometry x="-70" y="115" width="90" height="50" as="geometry" />
        </mxCell>
        <mxCell id="MSUiS18jvthD32c3BEqJ-7" value="AGE" style="ellipse;whiteSpace=wrap;html=1;" vertex="1" parent="1">
          <mxGeometry x="310" y="10" width="70" height="50" as="geometry" />
        </mxCell>
        <mxCell id="MSUiS18jvthD32c3BEqJ-8" value="GENDER" style="ellipse;whiteSpace=wrap;html=1;" vertex="1" parent="1">
          <mxGeometry x="280" y="70" width="90" height="50" as="geometry" />
        </mxCell>
        <mxCell id="MSUiS18jvthD32c3BEqJ-10" value="PHONE_NO" style="ellipse;whiteSpace=wrap;html=1;container=1;" vertex="1" parent="1">
          <mxGeometry x="220" y="12.5" width="70" height="45" as="geometry" />
        </mxCell>
        <mxCell id="MSUiS18jvthD32c3BEqJ-15" value="F_NAME" style="ellipse;whiteSpace=wrap;html=1;" vertex="1" parent="1">
          <mxGeometry x="-100" y="200" width="70" height="50" as="geometry" />
        </mxCell>
        <mxCell id="MSUiS18jvthD32c3BEqJ-16" value="L_NAME" style="ellipse;whiteSpace=wrap;html=1;" vertex="1" parent="1">
          <mxGeometry x="-10" y="200" width="70" height="50" as="geometry" />
        </mxCell>
        <mxCell id="MSUiS18jvthD32c3BEqJ-18" value="" style="endArrow=none;html=1;rounded=0;entryX=0.5;entryY=1;entryDx=0;entryDy=0;exitX=0.5;exitY=0;exitDx=0;exitDy=0;" edge="1" parent="1" source="MSUiS18jvthD32c3BEqJ-1" target="MSUiS18jvthD32c3BEqJ-6">
          <mxGeometry width="50" height="50" relative="1" as="geometry">
            <mxPoint x="120" y="100" as="sourcePoint" />
            <mxPoint x="150" y="70" as="targetPoint" />
          </mxGeometry>
        </mxCell>
        <mxCell id="MSUiS18jvthD32c3BEqJ-21" value="" style="endArrow=none;html=1;rounded=0;entryX=0;entryY=1;entryDx=0;entryDy=0;exitX=0.5;exitY=0;exitDx=0;exitDy=0;" edge="1" parent="1" source="MSUiS18jvthD32c3BEqJ-1" target="MSUiS18jvthD32c3BEqJ-3">
          <mxGeometry width="50" height="50" relative="1" as="geometry">
            <mxPoint x="120" y="110" as="sourcePoint" />
            <mxPoint x="450" y="260" as="targetPoint" />
          </mxGeometry>
        </mxCell>
        <mxCell id="MSUiS18jvthD32c3BEqJ-22" value="" style="endArrow=none;html=1;rounded=0;exitX=0;exitY=1;exitDx=0;exitDy=0;" edge="1" parent="1" source="MSUiS18jvthD32c3BEqJ-7">
          <mxGeometry width="50" height="50" relative="1" as="geometry">
            <mxPoint x="400" y="310" as="sourcePoint" />
            <mxPoint x="120" y="120" as="targetPoint" />
          </mxGeometry>
        </mxCell>
        <mxCell id="MSUiS18jvthD32c3BEqJ-25" value="" style="endArrow=none;html=1;rounded=0;entryX=0;entryY=0.5;entryDx=0;entryDy=0;exitX=1;exitY=0.25;exitDx=0;exitDy=0;" edge="1" parent="1" source="MSUiS18jvthD32c3BEqJ-1" target="MSUiS18jvthD32c3BEqJ-8">
          <mxGeometry width="50" height="50" relative="1" as="geometry">
            <mxPoint x="190" y="120" as="sourcePoint" />
            <mxPoint x="347.5799999999999" y="70.60000000000002" as="targetPoint" />
          </mxGeometry>
        </mxCell>
        <mxCell id="MSUiS18jvthD32c3BEqJ-26" value="" style="endArrow=none;html=1;rounded=0;entryX=0;entryY=0.5;entryDx=0;entryDy=0;exitX=1;exitY=0.5;exitDx=0;exitDy=0;" edge="1" parent="1" source="MSUiS18jvthD32c3BEqJ-5" target="MSUiS18jvthD32c3BEqJ-1">
          <mxGeometry width="50" height="50" relative="1" as="geometry">
            <mxPoint x="200" y="110" as="sourcePoint" />
            <mxPoint x="357.5799999999999" y="80.60000000000002" as="targetPoint" />
          </mxGeometry>
        </mxCell>
        <mxCell id="MSUiS18jvthD32c3BEqJ-27" value="" style="endArrow=none;html=1;rounded=0;entryX=0.396;entryY=1.012;entryDx=0;entryDy=0;entryPerimeter=0;exitX=0.5;exitY=0;exitDx=0;exitDy=0;" edge="1" parent="1" source="MSUiS18jvthD32c3BEqJ-1" target="MSUiS18jvthD32c3BEqJ-2">
          <mxGeometry width="50" height="50" relative="1" as="geometry">
            <mxPoint x="210" y="120" as="sourcePoint" />
            <mxPoint x="367.5799999999999" y="90.60000000000002" as="targetPoint" />
          </mxGeometry>
        </mxCell>
        <mxCell id="MSUiS18jvthD32c3BEqJ-28" value="" style="endArrow=none;html=1;rounded=0;entryX=0.636;entryY=0.98;entryDx=0;entryDy=0;entryPerimeter=0;exitX=0.5;exitY=0;exitDx=0;exitDy=0;" edge="1" parent="1" source="MSUiS18jvthD32c3BEqJ-1" target="MSUiS18jvthD32c3BEqJ-4">
          <mxGeometry width="50" height="50" relative="1" as="geometry">
            <mxPoint x="220" y="130" as="sourcePoint" />
            <mxPoint x="377.5799999999999" y="100.60000000000002" as="targetPoint" />
          </mxGeometry>
        </mxCell>
        <mxCell id="MSUiS18jvthD32c3BEqJ-30" value="" style="endArrow=none;html=1;rounded=0;entryX=0.5;entryY=0;entryDx=0;entryDy=0;exitX=0.5;exitY=1;exitDx=0;exitDy=0;" edge="1" parent="1" source="MSUiS18jvthD32c3BEqJ-5" target="MSUiS18jvthD32c3BEqJ-16">
          <mxGeometry width="50" height="50" relative="1" as="geometry">
            <mxPoint x="230" y="140" as="sourcePoint" />
            <mxPoint x="387.5799999999999" y="110.60000000000002" as="targetPoint" />
          </mxGeometry>
        </mxCell>
        <mxCell id="MSUiS18jvthD32c3BEqJ-32" value="" style="endArrow=none;html=1;rounded=0;exitX=0.5;exitY=1;exitDx=0;exitDy=0;" edge="1" parent="1" source="MSUiS18jvthD32c3BEqJ-5" target="MSUiS18jvthD32c3BEqJ-15">
          <mxGeometry width="50" height="50" relative="1" as="geometry">
            <mxPoint x="-25" y="160" as="sourcePoint" />
            <mxPoint x="45" y="220" as="targetPoint" />
          </mxGeometry>
        </mxCell>
        <mxCell id="MSUiS18jvthD32c3BEqJ-33" value="BOOKS" style="rhombus;whiteSpace=wrap;html=1;" vertex="1" parent="1">
          <mxGeometry x="20" y="270" width="80" height="80" as="geometry" />
        </mxCell>
        <mxCell id="MSUiS18jvthD32c3BEqJ-34" value="TICKET" style="rounded=0;whiteSpace=wrap;html=1;" vertex="1" parent="1">
          <mxGeometry x="60" y="420" width="120" height="60" as="geometry" />
        </mxCell>
        <mxCell id="MSUiS18jvthD32c3BEqJ-37" value="" style="endArrow=none;html=1;rounded=0;entryX=0.5;entryY=1;entryDx=0;entryDy=0;exitX=0.5;exitY=0;exitDx=0;exitDy=0;" edge="1" parent="1" source="MSUiS18jvthD32c3BEqJ-34" target="MSUiS18jvthD32c3BEqJ-33">
          <mxGeometry width="50" height="50" relative="1" as="geometry">
            <mxPoint x="120" y="400" as="sourcePoint" />
            <mxPoint x="130" y="180" as="targetPoint" />
          </mxGeometry>
        </mxCell>
        <mxCell id="MSUiS18jvthD32c3BEqJ-42" value="TICKET_NO" style="ellipse;whiteSpace=wrap;html=1;" vertex="1" parent="1">
          <mxGeometry y="550" width="90" height="50" as="geometry" />
        </mxCell>
        <mxCell id="MSUiS18jvthD32c3BEqJ-45" value="DATE_OF_TRAVEL" style="ellipse;whiteSpace=wrap;html=1;" vertex="1" parent="1">
          <mxGeometry x="-100" y="510" width="110" height="50" as="geometry" />
        </mxCell>
        <mxCell id="MSUiS18jvthD32c3BEqJ-46" value="PRICE" style="ellipse;whiteSpace=wrap;html=1;" vertex="1" parent="1">
          <mxGeometry x="110" y="540" width="90" height="50" as="geometry" />
        </mxCell>
        <mxCell id="MSUiS18jvthD32c3BEqJ-47" value="" style="endArrow=none;html=1;rounded=0;entryX=0.42;entryY=1.003;entryDx=0;entryDy=0;exitX=1;exitY=0.5;exitDx=0;exitDy=0;entryPerimeter=0;" edge="1" parent="1" source="MSUiS18jvthD32c3BEqJ-45" target="MSUiS18jvthD32c3BEqJ-34">
          <mxGeometry width="50" height="50" relative="1" as="geometry">
            <mxPoint x="400" y="420" as="sourcePoint" />
            <mxPoint x="450" y="370" as="targetPoint" />
          </mxGeometry>
        </mxCell>
        <mxCell id="MSUiS18jvthD32c3BEqJ-49" value="" style="endArrow=none;html=1;rounded=0;exitX=0.764;exitY=0.084;exitDx=0;exitDy=0;exitPerimeter=0;entryX=0.433;entryY=1.037;entryDx=0;entryDy=0;entryPerimeter=0;" edge="1" parent="1" source="MSUiS18jvthD32c3BEqJ-42" target="MSUiS18jvthD32c3BEqJ-34">
          <mxGeometry width="50" height="50" relative="1" as="geometry">
            <mxPoint x="90" y="510" as="sourcePoint" />
            <mxPoint x="110" y="470" as="targetPoint" />
          </mxGeometry>
        </mxCell>
        <mxCell id="MSUiS18jvthD32c3BEqJ-50" value="" style="endArrow=none;html=1;rounded=0;exitX=0.333;exitY=0;exitDx=0;exitDy=0;exitPerimeter=0;" edge="1" parent="1" source="MSUiS18jvthD32c3BEqJ-46">
          <mxGeometry width="50" height="50" relative="1" as="geometry">
            <mxPoint x="40" y="485" as="sourcePoint" />
            <mxPoint x="110" y="480" as="targetPoint" />
          </mxGeometry>
        </mxCell>
        <mxCell id="MSUiS18jvthD32c3BEqJ-51" value="PASSENGER_DETAILS" style="ellipse;whiteSpace=wrap;html=1;" vertex="1" parent="1">
          <mxGeometry x="210" y="530" width="140" height="50" as="geometry" />
        </mxCell>
        <mxCell id="MSUiS18jvthD32c3BEqJ-52" value="" style="endArrow=none;html=1;rounded=0;entryX=0.447;entryY=1.03;entryDx=0;entryDy=0;entryPerimeter=0;" edge="1" parent="1" source="MSUiS18jvthD32c3BEqJ-51" target="MSUiS18jvthD32c3BEqJ-34">
          <mxGeometry width="50" height="50" relative="1" as="geometry">
            <mxPoint x="179.9699999999998" y="520" as="sourcePoint" />
            <mxPoint x="120" y="480" as="targetPoint" />
          </mxGeometry>
        </mxCell>
        <mxCell id="MSUiS18jvthD32c3BEqJ-53" value="BOARDS" style="rhombus;whiteSpace=wrap;html=1;" vertex="1" parent="1">
          <mxGeometry x="370" y="95" width="80" height="80" as="geometry" />
        </mxCell>
        <mxCell id="MSUiS18jvthD32c3BEqJ-54" value="BUS" style="rounded=0;whiteSpace=wrap;html=1;" vertex="1" parent="1">
          <mxGeometry x="620" y="120" width="120" height="60" as="geometry" />
        </mxCell>
        <mxCell id="MSUiS18jvthD32c3BEqJ-55" value="SOURCE" style="ellipse;whiteSpace=wrap;html=1;" vertex="1" parent="1">
          <mxGeometry x="530" y="12.5" width="90" height="50" as="geometry" />
        </mxCell>
        <mxCell id="MSUiS18jvthD32c3BEqJ-56" value="ARRIVAL_TIME" style="ellipse;whiteSpace=wrap;html=1;" vertex="1" parent="1">
          <mxGeometry x="835" y="150" width="90" height="50" as="geometry" />
        </mxCell>
        <mxCell id="MSUiS18jvthD32c3BEqJ-57" value="BUS_NO" style="ellipse;whiteSpace=wrap;html=1;" vertex="1" parent="1">
          <mxGeometry x="550" y="210" width="90" height="50" as="geometry" />
        </mxCell>
        <mxCell id="MSUiS18jvthD32c3BEqJ-58" value="DESTINATION" style="ellipse;whiteSpace=wrap;html=1;" vertex="1" parent="1">
          <mxGeometry x="620" y="12.5" width="90" height="50" as="geometry" />
        </mxCell>
        <mxCell id="MSUiS18jvthD32c3BEqJ-59" value="DEPT_TIME" style="ellipse;whiteSpace=wrap;html=1;" vertex="1" parent="1">
          <mxGeometry x="720" y="12.5" width="90" height="50" as="geometry" />
        </mxCell>
        <mxCell id="MSUiS18jvthD32c3BEqJ-60" value="DEPT_LOCTION" style="ellipse;whiteSpace=wrap;html=1;" vertex="1" parent="1">
          <mxGeometry x="825" y="12.5" width="100" height="50" as="geometry" />
        </mxCell>
        <mxCell id="MSUiS18jvthD32c3BEqJ-61" value="TOTAL_SEATS" style="ellipse;whiteSpace=wrap;html=1;" vertex="1" parent="1">
          <mxGeometry x="830" y="80" width="90" height="50" as="geometry" />
        </mxCell>
        <mxCell id="MSUiS18jvthD32c3BEqJ-64" value="" style="endArrow=none;html=1;rounded=0;exitX=0.5;exitY=1;exitDx=0;exitDy=0;entryX=0.5;entryY=0;entryDx=0;entryDy=0;" edge="1" parent="1" source="MSUiS18jvthD32c3BEqJ-55" target="MSUiS18jvthD32c3BEqJ-54">
          <mxGeometry width="50" height="50" relative="1" as="geometry">
            <mxPoint x="400" y="220" as="sourcePoint" />
            <mxPoint x="680" y="110" as="targetPoint" />
          </mxGeometry>
        </mxCell>
        <mxCell id="MSUiS18jvthD32c3BEqJ-65" value="" style="endArrow=none;html=1;rounded=0;exitX=0.5;exitY=1;exitDx=0;exitDy=0;entryX=0.5;entryY=0;entryDx=0;entryDy=0;" edge="1" parent="1" source="MSUiS18jvthD32c3BEqJ-58" target="MSUiS18jvthD32c3BEqJ-54">
          <mxGeometry width="50" height="50" relative="1" as="geometry">
            <mxPoint x="565" y="70" as="sourcePoint" />
            <mxPoint x="690" y="110" as="targetPoint" />
          </mxGeometry>
        </mxCell>
        <mxCell id="MSUiS18jvthD32c3BEqJ-66" value="" style="endArrow=none;html=1;rounded=0;entryX=0.5;entryY=0;entryDx=0;entryDy=0;exitX=0.5;exitY=1;exitDx=0;exitDy=0;" edge="1" parent="1" source="MSUiS18jvthD32c3BEqJ-59" target="MSUiS18jvthD32c3BEqJ-54">
          <mxGeometry width="50" height="50" relative="1" as="geometry">
            <mxPoint x="750" y="70" as="sourcePoint" />
            <mxPoint x="700" y="120" as="targetPoint" />
          </mxGeometry>
        </mxCell>
        <mxCell id="MSUiS18jvthD32c3BEqJ-67" value="" style="endArrow=none;html=1;rounded=0;entryX=0;entryY=1;entryDx=0;entryDy=0;" edge="1" parent="1" source="MSUiS18jvthD32c3BEqJ-57" target="MSUiS18jvthD32c3BEqJ-54">
          <mxGeometry width="50" height="50" relative="1" as="geometry">
            <mxPoint x="585" y="90" as="sourcePoint" />
            <mxPoint x="710" y="130" as="targetPoint" />
          </mxGeometry>
        </mxCell>
        <mxCell id="MSUiS18jvthD32c3BEqJ-68" value="" style="endArrow=none;html=1;rounded=0;exitX=0;exitY=1;exitDx=0;exitDy=0;entryX=0.5;entryY=0;entryDx=0;entryDy=0;" edge="1" parent="1" source="MSUiS18jvthD32c3BEqJ-60" target="MSUiS18jvthD32c3BEqJ-54">
          <mxGeometry width="50" height="50" relative="1" as="geometry">
            <mxPoint x="595" y="100" as="sourcePoint" />
            <mxPoint x="720" y="140" as="targetPoint" />
          </mxGeometry>
        </mxCell>
        <mxCell id="MSUiS18jvthD32c3BEqJ-69" value="" style="endArrow=none;html=1;rounded=0;exitX=0;exitY=0.5;exitDx=0;exitDy=0;entryX=1;entryY=0.25;entryDx=0;entryDy=0;" edge="1" parent="1" source="MSUiS18jvthD32c3BEqJ-61" target="MSUiS18jvthD32c3BEqJ-54">
          <mxGeometry width="50" height="50" relative="1" as="geometry">
            <mxPoint x="605" y="110" as="sourcePoint" />
            <mxPoint x="750" y="130" as="targetPoint" />
          </mxGeometry>
        </mxCell>
        <mxCell id="MSUiS18jvthD32c3BEqJ-70" value="" style="endArrow=none;html=1;rounded=0;exitX=0;exitY=0.5;exitDx=0;exitDy=0;entryX=1;entryY=0.25;entryDx=0;entryDy=0;" edge="1" parent="1" source="MSUiS18jvthD32c3BEqJ-56" target="MSUiS18jvthD32c3BEqJ-54">
          <mxGeometry width="50" height="50" relative="1" as="geometry">
            <mxPoint x="615" y="120" as="sourcePoint" />
            <mxPoint x="740" y="130" as="targetPoint" />
          </mxGeometry>
        </mxCell>
        <mxCell id="MSUiS18jvthD32c3BEqJ-71" value="" style="endArrow=none;html=1;rounded=0;entryX=0.308;entryY=0.068;entryDx=0;entryDy=0;entryPerimeter=0;" edge="1" parent="1" target="MSUiS18jvthD32c3BEqJ-74">
          <mxGeometry width="50" height="50" relative="1" as="geometry">
            <mxPoint x="740" y="150" as="sourcePoint" />
            <mxPoint x="840" y="230" as="targetPoint" />
          </mxGeometry>
        </mxCell>
        <mxCell id="MSUiS18jvthD32c3BEqJ-72" value="" style="endArrow=none;html=1;rounded=0;exitX=1;exitY=0.75;exitDx=0;exitDy=0;entryX=0;entryY=0;entryDx=0;entryDy=0;" edge="1" parent="1" source="MSUiS18jvthD32c3BEqJ-54" target="MSUiS18jvthD32c3BEqJ-74">
          <mxGeometry width="50" height="50" relative="1" as="geometry">
            <mxPoint x="635" y="140" as="sourcePoint" />
            <mxPoint x="850" y="230" as="targetPoint" />
          </mxGeometry>
        </mxCell>
        <mxCell id="MSUiS18jvthD32c3BEqJ-74" value="d" style="ellipse;whiteSpace=wrap;html=1;aspect=fixed;" vertex="1" parent="1">
          <mxGeometry x="835" y="230" width="50" height="50" as="geometry" />
        </mxCell>
        <mxCell id="MSUiS18jvthD32c3BEqJ-75" value="" style="endArrow=classic;html=1;rounded=0;exitX=0;exitY=1;exitDx=0;exitDy=0;" edge="1" parent="1" source="MSUiS18jvthD32c3BEqJ-74">
          <mxGeometry width="50" height="50" relative="1" as="geometry">
            <mxPoint x="400" y="220" as="sourcePoint" />
            <mxPoint x="800" y="320" as="targetPoint" />
          </mxGeometry>
        </mxCell>
        <mxCell id="MSUiS18jvthD32c3BEqJ-76" value="" style="endArrow=classic;html=1;rounded=0;exitX=1;exitY=1;exitDx=0;exitDy=0;" edge="1" parent="1" source="MSUiS18jvthD32c3BEqJ-74">
          <mxGeometry width="50" height="50" relative="1" as="geometry">
            <mxPoint x="852.322330470336" y="282.67766952966394" as="sourcePoint" />
            <mxPoint x="910" y="320" as="targetPoint" />
          </mxGeometry>
        </mxCell>
        <mxCell id="MSUiS18jvthD32c3BEqJ-77" value="SEMI-SEATER" style="rounded=0;whiteSpace=wrap;html=1;" vertex="1" parent="1">
          <mxGeometry x="750" y="320" width="90" height="40" as="geometry" />
        </mxCell>
        <mxCell id="MSUiS18jvthD32c3BEqJ-78" value="SLEEPER" style="rounded=0;whiteSpace=wrap;html=1;" vertex="1" parent="1">
          <mxGeometry x="870" y="320" width="80" height="40" as="geometry" />
        </mxCell>
        <mxCell id="MSUiS18jvthD32c3BEqJ-79" value="" style="endArrow=none;html=1;rounded=0;entryX=1;entryY=0.5;entryDx=0;entryDy=0;" edge="1" parent="1" source="MSUiS18jvthD32c3BEqJ-53" target="MSUiS18jvthD32c3BEqJ-1">
          <mxGeometry width="50" height="50" relative="1" as="geometry">
            <mxPoint x="400" y="220" as="sourcePoint" />
            <mxPoint x="450" y="170" as="targetPoint" />
          </mxGeometry>
        </mxCell>
        <mxCell id="MSUiS18jvthD32c3BEqJ-80" value="" style="endArrow=none;html=1;rounded=0;exitX=1;exitY=0.5;exitDx=0;exitDy=0;" edge="1" parent="1" source="MSUiS18jvthD32c3BEqJ-53" target="MSUiS18jvthD32c3BEqJ-54">
          <mxGeometry width="50" height="50" relative="1" as="geometry">
            <mxPoint x="370" y="150" as="sourcePoint" />
            <mxPoint x="190" y="150" as="targetPoint" />
          </mxGeometry>
        </mxCell>
        <mxCell id="MSUiS18jvthD32c3BEqJ-81" value="TRAVEL&amp;nbsp;&lt;br&gt;THROUGH" style="rhombus;whiteSpace=wrap;html=1;" vertex="1" parent="1">
          <mxGeometry x="640" y="240" width="80" height="80" as="geometry" />
        </mxCell>
        <mxCell id="MSUiS18jvthD32c3BEqJ-82" value="" style="endArrow=none;html=1;rounded=0;entryX=0.5;entryY=1;entryDx=0;entryDy=0;" edge="1" parent="1" source="MSUiS18jvthD32c3BEqJ-81" target="MSUiS18jvthD32c3BEqJ-54">
          <mxGeometry width="50" height="50" relative="1" as="geometry">
            <mxPoint x="400" y="320" as="sourcePoint" />
            <mxPoint x="450" y="270" as="targetPoint" />
          </mxGeometry>
        </mxCell>
        <mxCell id="MSUiS18jvthD32c3BEqJ-83" value="" style="endArrow=none;html=1;rounded=0;entryX=0.5;entryY=1;entryDx=0;entryDy=0;exitX=0.5;exitY=0;exitDx=0;exitDy=0;" edge="1" parent="1" source="MSUiS18jvthD32c3BEqJ-84" target="MSUiS18jvthD32c3BEqJ-81">
          <mxGeometry width="50" height="50" relative="1" as="geometry">
            <mxPoint x="680" y="440" as="sourcePoint" />
            <mxPoint x="690" y="180" as="targetPoint" />
          </mxGeometry>
        </mxCell>
        <mxCell id="MSUiS18jvthD32c3BEqJ-84" value="ROUTE" style="rounded=0;whiteSpace=wrap;html=1;" vertex="1" parent="1">
          <mxGeometry x="620" y="370" width="120" height="60" as="geometry" />
        </mxCell>
        <mxCell id="MSUiS18jvthD32c3BEqJ-85" value="PICK_UP" style="ellipse;whiteSpace=wrap;html=1;" vertex="1" parent="1">
          <mxGeometry x="800" y="470" width="90" height="50" as="geometry" />
        </mxCell>
        <mxCell id="MSUiS18jvthD32c3BEqJ-86" value="HIGHWAY" style="ellipse;whiteSpace=wrap;html=1;" vertex="1" parent="1">
          <mxGeometry x="800" y="390" width="90" height="50" as="geometry" />
        </mxCell>
        <mxCell id="MSUiS18jvthD32c3BEqJ-87" value="TOLLS" style="ellipse;whiteSpace=wrap;html=1;" vertex="1" parent="1">
          <mxGeometry x="600" y="490" width="90" height="50" as="geometry" />
        </mxCell>
        <mxCell id="MSUiS18jvthD32c3BEqJ-88" value="DROP" style="ellipse;whiteSpace=wrap;html=1;" vertex="1" parent="1">
          <mxGeometry x="710" y="500" width="90" height="50" as="geometry" />
        </mxCell>
        <mxCell id="MSUiS18jvthD32c3BEqJ-89" value="PIT_STOP" style="ellipse;whiteSpace=wrap;html=1;" vertex="1" parent="1">
          <mxGeometry x="530" y="445" width="90" height="50" as="geometry" />
        </mxCell>
        <mxCell id="MSUiS18jvthD32c3BEqJ-90" value="" style="endArrow=none;html=1;rounded=0;entryX=1;entryY=0.5;entryDx=0;entryDy=0;exitX=0;exitY=0.5;exitDx=0;exitDy=0;" edge="1" parent="1" source="MSUiS18jvthD32c3BEqJ-86" target="MSUiS18jvthD32c3BEqJ-84">
          <mxGeometry width="50" height="50" relative="1" as="geometry">
            <mxPoint x="690" y="430" as="sourcePoint" />
            <mxPoint x="690" y="380" as="targetPoint" />
          </mxGeometry>
        </mxCell>
        <mxCell id="MSUiS18jvthD32c3BEqJ-91" value="" style="endArrow=none;html=1;rounded=0;entryX=0.5;entryY=1;entryDx=0;entryDy=0;exitX=0.244;exitY=0.1;exitDx=0;exitDy=0;exitPerimeter=0;" edge="1" parent="1" source="MSUiS18jvthD32c3BEqJ-85" target="MSUiS18jvthD32c3BEqJ-84">
          <mxGeometry width="50" height="50" relative="1" as="geometry">
            <mxPoint x="820" y="460" as="sourcePoint" />
            <mxPoint x="750" y="460" as="targetPoint" />
          </mxGeometry>
        </mxCell>
        <mxCell id="MSUiS18jvthD32c3BEqJ-92" value="" style="endArrow=none;html=1;rounded=0;entryX=0.5;entryY=1;entryDx=0;entryDy=0;" edge="1" parent="1" source="MSUiS18jvthD32c3BEqJ-88" target="MSUiS18jvthD32c3BEqJ-84">
          <mxGeometry width="50" height="50" relative="1" as="geometry">
            <mxPoint x="839.98" y="520" as="sourcePoint" />
            <mxPoint x="680" y="480" as="targetPoint" />
          </mxGeometry>
        </mxCell>
        <mxCell id="MSUiS18jvthD32c3BEqJ-93" value="" style="endArrow=none;html=1;rounded=0;entryX=0.5;entryY=1;entryDx=0;entryDy=0;" edge="1" parent="1" source="MSUiS18jvthD32c3BEqJ-87" target="MSUiS18jvthD32c3BEqJ-84">
          <mxGeometry width="50" height="50" relative="1" as="geometry">
            <mxPoint x="849.98" y="530" as="sourcePoint" />
            <mxPoint x="700" y="500" as="targetPoint" />
          </mxGeometry>
        </mxCell>
        <mxCell id="MSUiS18jvthD32c3BEqJ-94" value="" style="endArrow=none;html=1;rounded=0;entryX=0.5;entryY=1;entryDx=0;entryDy=0;exitX=1;exitY=0;exitDx=0;exitDy=0;" edge="1" parent="1" source="MSUiS18jvthD32c3BEqJ-89" target="MSUiS18jvthD32c3BEqJ-84">
          <mxGeometry width="50" height="50" relative="1" as="geometry">
            <mxPoint x="859.98" y="540" as="sourcePoint" />
            <mxPoint x="710" y="510" as="targetPoint" />
          </mxGeometry>
        </mxCell>
        <mxCell id="MSUiS18jvthD32c3BEqJ-95" value="RECEIVE" style="rhombus;whiteSpace=wrap;html=1;" vertex="1" parent="1">
          <mxGeometry x="260" y="440" width="80" height="80" as="geometry" />
        </mxCell>
        <mxCell id="MSUiS18jvthD32c3BEqJ-97" value="" style="endArrow=none;html=1;rounded=0;exitX=1;exitY=0.5;exitDx=0;exitDy=0;entryX=0;entryY=0.5;entryDx=0;entryDy=0;" edge="1" parent="1" source="MSUiS18jvthD32c3BEqJ-34" target="MSUiS18jvthD32c3BEqJ-95">
          <mxGeometry width="50" height="50" relative="1" as="geometry">
            <mxPoint x="400" y="330" as="sourcePoint" />
            <mxPoint x="450" y="280" as="targetPoint" />
          </mxGeometry>
        </mxCell>
        <mxCell id="MSUiS18jvthD32c3BEqJ-98" value="PAYMENT" style="rounded=0;whiteSpace=wrap;html=1;" vertex="1" parent="1">
          <mxGeometry x="410" y="500" width="120" height="60" as="geometry" />
        </mxCell>
        <mxCell id="MSUiS18jvthD32c3BEqJ-99" value="" style="endArrow=none;html=1;rounded=0;exitX=1;exitY=0.5;exitDx=0;exitDy=0;entryX=0.5;entryY=0;entryDx=0;entryDy=0;" edge="1" parent="1" source="MSUiS18jvthD32c3BEqJ-95" target="MSUiS18jvthD32c3BEqJ-98">
          <mxGeometry width="50" height="50" relative="1" as="geometry">
            <mxPoint x="400" y="430" as="sourcePoint" />
            <mxPoint x="450" y="380" as="targetPoint" />
          </mxGeometry>
        </mxCell>
        <mxCell id="MSUiS18jvthD32c3BEqJ-101" value="PAY_MODE" style="ellipse;whiteSpace=wrap;html=1;" vertex="1" parent="1">
          <mxGeometry x="400" y="590" width="90" height="50" as="geometry" />
        </mxCell>
        <mxCell id="MSUiS18jvthD32c3BEqJ-102" value="PAY_ID" style="ellipse;whiteSpace=wrap;html=1;" vertex="1" parent="1">
          <mxGeometry x="300" y="590" width="90" height="50" as="geometry" />
        </mxCell>
        <mxCell id="MSUiS18jvthD32c3BEqJ-103" value="PAY_DATE" style="ellipse;whiteSpace=wrap;html=1;" vertex="1" parent="1">
          <mxGeometry x="500" y="590" width="90" height="50" as="geometry" />
        </mxCell>
        <mxCell id="MSUiS18jvthD32c3BEqJ-104" value="AMOUNT" style="ellipse;whiteSpace=wrap;html=1;" vertex="1" parent="1">
          <mxGeometry x="600" y="590" width="90" height="50" as="geometry" />
        </mxCell>
        <mxCell id="MSUiS18jvthD32c3BEqJ-106" value="" style="endArrow=none;html=1;rounded=0;entryX=0.5;entryY=1;entryDx=0;entryDy=0;exitX=0.5;exitY=0;exitDx=0;exitDy=0;" edge="1" parent="1" source="MSUiS18jvthD32c3BEqJ-102" target="MSUiS18jvthD32c3BEqJ-98">
          <mxGeometry width="50" height="50" relative="1" as="geometry">
            <mxPoint x="400" y="430" as="sourcePoint" />
            <mxPoint x="450" y="380" as="targetPoint" />
          </mxGeometry>
        </mxCell>
        <mxCell id="MSUiS18jvthD32c3BEqJ-107" value="" style="endArrow=none;html=1;rounded=0;entryX=0.5;entryY=1;entryDx=0;entryDy=0;exitX=0.5;exitY=0;exitDx=0;exitDy=0;" edge="1" parent="1" source="MSUiS18jvthD32c3BEqJ-101" target="MSUiS18jvthD32c3BEqJ-98">
          <mxGeometry width="50" height="50" relative="1" as="geometry">
            <mxPoint x="362.8299999999999" y="601.8" as="sourcePoint" />
            <mxPoint x="480" y="570" as="targetPoint" />
          </mxGeometry>
        </mxCell>
        <mxCell id="MSUiS18jvthD32c3BEqJ-108" value="" style="endArrow=none;html=1;rounded=0;entryX=0.5;entryY=1;entryDx=0;entryDy=0;exitX=0.5;exitY=0;exitDx=0;exitDy=0;" edge="1" parent="1" source="MSUiS18jvthD32c3BEqJ-103" target="MSUiS18jvthD32c3BEqJ-98">
          <mxGeometry width="50" height="50" relative="1" as="geometry">
            <mxPoint x="372.8299999999999" y="611.8" as="sourcePoint" />
            <mxPoint x="490" y="580" as="targetPoint" />
          </mxGeometry>
        </mxCell>
        <mxCell id="MSUiS18jvthD32c3BEqJ-109" value="" style="endArrow=none;html=1;rounded=0;entryX=0.5;entryY=1;entryDx=0;entryDy=0;exitX=0.5;exitY=0;exitDx=0;exitDy=0;" edge="1" parent="1" source="MSUiS18jvthD32c3BEqJ-104" target="MSUiS18jvthD32c3BEqJ-98">
          <mxGeometry width="50" height="50" relative="1" as="geometry">
            <mxPoint x="382.8299999999999" y="621.8" as="sourcePoint" />
            <mxPoint x="500" y="590" as="targetPoint" />
          </mxGeometry>
        </mxCell>
        <mxCell id="MSUiS18jvthD32c3BEqJ-114" value="" style="line;strokeWidth=2;html=1;" vertex="1" parent="1">
          <mxGeometry x="10" y="580" width="70" height="10" as="geometry" />
        </mxCell>
        <mxCell id="MSUiS18jvthD32c3BEqJ-115" value="" style="line;strokeWidth=2;html=1;" vertex="1" parent="1">
          <mxGeometry x="30" y="40" width="50" height="10" as="geometry" />
        </mxCell>
        <mxCell id="MSUiS18jvthD32c3BEqJ-116" value="SEAT_NO" style="ellipse;whiteSpace=wrap;html=1;" vertex="1" parent="1">
          <mxGeometry x="430" y="12.5" width="90" height="50" as="geometry" />
        </mxCell>
        <mxCell id="MSUiS18jvthD32c3BEqJ-117" value="" style="endArrow=none;html=1;rounded=0;exitX=0.5;exitY=1;exitDx=0;exitDy=0;" edge="1" parent="1" source="MSUiS18jvthD32c3BEqJ-116">
          <mxGeometry width="50" height="50" relative="1" as="geometry">
            <mxPoint x="585" y="72.5" as="sourcePoint" />
            <mxPoint x="680" y="120" as="targetPoint" />
          </mxGeometry>
        </mxCell>
        <mxCell id="MSUiS18jvthD32c3BEqJ-118" value="" style="line;strokeWidth=2;html=1;" vertex="1" parent="1">
          <mxGeometry x="445" y="40" width="60" height="10" as="geometry" />
        </mxCell>
        <mxCell id="MSUiS18jvthD32c3BEqJ-119" value="" style="line;strokeWidth=2;html=1;" vertex="1" parent="1">
          <mxGeometry x="815" y="420" width="60" height="10" as="geometry" />
        </mxCell>
        <mxCell id="MSUiS18jvthD32c3BEqJ-120" value="" style="line;strokeWidth=2;html=1;" vertex="1" parent="1">
          <mxGeometry x="320" y="620" width="50" height="10" as="geometry" />
        </mxCell>
        <mxCell id="MSUiS18jvthD32c3BEqJ-121" value="DRIVES" style="rhombus;whiteSpace=wrap;html=1;" vertex="1" parent="1">
          <mxGeometry x="425" y="215" width="80" height="80" as="geometry" />
        </mxCell>
        <mxCell id="MSUiS18jvthD32c3BEqJ-122" value="" style="endArrow=none;html=1;rounded=0;entryX=0;entryY=0.5;entryDx=0;entryDy=0;exitX=1;exitY=0;exitDx=0;exitDy=0;" edge="1" parent="1" source="MSUiS18jvthD32c3BEqJ-121" target="MSUiS18jvthD32c3BEqJ-54">
          <mxGeometry width="50" height="50" relative="1" as="geometry">
            <mxPoint x="400" y="340" as="sourcePoint" />
            <mxPoint x="450" y="290" as="targetPoint" />
          </mxGeometry>
        </mxCell>
        <mxCell id="MSUiS18jvthD32c3BEqJ-123" value="DRIVER" style="rounded=0;whiteSpace=wrap;html=1;" vertex="1" parent="1">
          <mxGeometry x="380" y="330" width="120" height="60" as="geometry" />
        </mxCell>
        <mxCell id="MSUiS18jvthD32c3BEqJ-125" value="NAME" style="ellipse;whiteSpace=wrap;html=1;" vertex="1" parent="1">
          <mxGeometry x="540" y="280" width="90" height="50" as="geometry" />
        </mxCell>
        <mxCell id="MSUiS18jvthD32c3BEqJ-126" value="GENDER" style="ellipse;whiteSpace=wrap;html=1;" vertex="1" parent="1">
          <mxGeometry x="440" y="410" width="90" height="50" as="geometry" />
        </mxCell>
        <mxCell id="MSUiS18jvthD32c3BEqJ-132" value="" style="ellipse;whiteSpace=wrap;html=1;" vertex="1" parent="1">
          <mxGeometry x="267.5" y="320" width="95" height="60" as="geometry" />
        </mxCell>
        <mxCell id="MSUiS18jvthD32c3BEqJ-133" value="PHONE_NO" style="ellipse;whiteSpace=wrap;html=1;" vertex="1" parent="1">
          <mxGeometry x="275" y="325" width="80" height="50" as="geometry" />
        </mxCell>
        <mxCell id="MSUiS18jvthD32c3BEqJ-134" value="AGE" style="ellipse;whiteSpace=wrap;html=1;" vertex="1" parent="1">
          <mxGeometry x="530" y="350" width="70" height="50" as="geometry" />
        </mxCell>
        <mxCell id="MSUiS18jvthD32c3BEqJ-135" value="" style="endArrow=none;html=1;rounded=0;entryX=0.5;entryY=1;entryDx=0;entryDy=0;" edge="1" parent="1" source="MSUiS18jvthD32c3BEqJ-123" target="MSUiS18jvthD32c3BEqJ-121">
          <mxGeometry width="50" height="50" relative="1" as="geometry">
            <mxPoint x="400" y="240" as="sourcePoint" />
            <mxPoint x="450" y="190" as="targetPoint" />
          </mxGeometry>
        </mxCell>
        <mxCell id="MSUiS18jvthD32c3BEqJ-136" value="" style="endArrow=none;html=1;rounded=0;entryX=0.5;entryY=0;entryDx=0;entryDy=0;exitX=0.5;exitY=1;exitDx=0;exitDy=0;" edge="1" parent="1" source="MSUiS18jvthD32c3BEqJ-123" target="MSUiS18jvthD32c3BEqJ-126">
          <mxGeometry width="50" height="50" relative="1" as="geometry">
            <mxPoint x="455" y="330" as="sourcePoint" />
            <mxPoint x="455" y="305" as="targetPoint" />
          </mxGeometry>
        </mxCell>
        <mxCell id="MSUiS18jvthD32c3BEqJ-137" value="" style="endArrow=none;html=1;rounded=0;entryX=1;entryY=0.5;entryDx=0;entryDy=0;exitX=0;exitY=0.5;exitDx=0;exitDy=0;" edge="1" parent="1" source="MSUiS18jvthD32c3BEqJ-134" target="MSUiS18jvthD32c3BEqJ-123">
          <mxGeometry width="50" height="50" relative="1" as="geometry">
            <mxPoint x="465" y="340" as="sourcePoint" />
            <mxPoint x="465" y="315" as="targetPoint" />
          </mxGeometry>
        </mxCell>
        <mxCell id="MSUiS18jvthD32c3BEqJ-138" value="" style="endArrow=none;html=1;rounded=0;exitX=0;exitY=0.5;exitDx=0;exitDy=0;" edge="1" parent="1" source="MSUiS18jvthD32c3BEqJ-123" target="MSUiS18jvthD32c3BEqJ-132">
          <mxGeometry width="50" height="50" relative="1" as="geometry">
            <mxPoint x="475" y="350" as="sourcePoint" />
            <mxPoint x="475" y="325" as="targetPoint" />
          </mxGeometry>
        </mxCell>
        <mxCell id="MSUiS18jvthD32c3BEqJ-139" value="" style="endArrow=none;html=1;rounded=0;entryX=0;entryY=1;entryDx=0;entryDy=0;exitX=1;exitY=0.5;exitDx=0;exitDy=0;" edge="1" parent="1" source="MSUiS18jvthD32c3BEqJ-123" target="MSUiS18jvthD32c3BEqJ-125">
          <mxGeometry width="50" height="50" relative="1" as="geometry">
            <mxPoint x="485" y="360" as="sourcePoint" />
            <mxPoint x="485" y="335" as="targetPoint" />
          </mxGeometry>
        </mxCell>
        <mxCell id="MSUiS18jvthD32c3BEqJ-141" value="" style="rounded=0;whiteSpace=wrap;html=1;" vertex="1" parent="1">
          <mxGeometry x="277.5" y="245" width="90" height="40" as="geometry" />
        </mxCell>
        <mxCell id="MSUiS18jvthD32c3BEqJ-142" value="" style="rhombus;whiteSpace=wrap;html=1;" vertex="1" parent="1">
          <mxGeometry x="170" y="195" width="80" height="80" as="geometry" />
        </mxCell>
        <mxCell id="MSUiS18jvthD32c3BEqJ-143" value="GIVES" style="rhombus;whiteSpace=wrap;html=1;" vertex="1" parent="1">
          <mxGeometry x="180" y="205" width="60" height="60" as="geometry" />
        </mxCell>
        <mxCell id="MSUiS18jvthD32c3BEqJ-144" value="FEEDBACK" style="rounded=0;whiteSpace=wrap;html=1;" vertex="1" parent="1">
          <mxGeometry x="287.5" y="250" width="70" height="30" as="geometry" />
        </mxCell>
        <mxCell id="MSUiS18jvthD32c3BEqJ-145" value="" style="endArrow=none;html=1;rounded=0;exitX=0;exitY=0.5;exitDx=0;exitDy=0;" edge="1" parent="1" source="MSUiS18jvthD32c3BEqJ-142">
          <mxGeometry width="50" height="50" relative="1" as="geometry">
            <mxPoint x="400" y="240" as="sourcePoint" />
            <mxPoint x="120" y="180" as="targetPoint" />
          </mxGeometry>
        </mxCell>
        <mxCell id="MSUiS18jvthD32c3BEqJ-146" value="" style="endArrow=none;html=1;rounded=0;exitX=1;exitY=0.5;exitDx=0;exitDy=0;entryX=0;entryY=0.5;entryDx=0;entryDy=0;" edge="1" parent="1" source="MSUiS18jvthD32c3BEqJ-142" target="MSUiS18jvthD32c3BEqJ-141">
          <mxGeometry width="50" height="50" relative="1" as="geometry">
            <mxPoint x="400" y="240" as="sourcePoint" />
            <mxPoint x="450" y="190" as="targetPoint" />
          </mxGeometry>
        </mxCell>
        <mxCell id="MSUiS18jvthD32c3BEqJ-147" value="REVIEW" style="ellipse;whiteSpace=wrap;html=1;" vertex="1" parent="1">
          <mxGeometry x="272.5" y="160" width="80" height="40" as="geometry" />
        </mxCell>
        <mxCell id="MSUiS18jvthD32c3BEqJ-148" value="RATING" style="ellipse;whiteSpace=wrap;html=1;" vertex="1" parent="1">
          <mxGeometry x="362.5" y="175" width="80" height="40" as="geometry" />
        </mxCell>
        <mxCell id="MSUiS18jvthD32c3BEqJ-149" value="" style="endArrow=none;html=1;rounded=0;entryX=0.5;entryY=1;entryDx=0;entryDy=0;exitX=0.75;exitY=0;exitDx=0;exitDy=0;" edge="1" parent="1" source="MSUiS18jvthD32c3BEqJ-141" target="MSUiS18jvthD32c3BEqJ-147">
          <mxGeometry width="50" height="50" relative="1" as="geometry">
            <mxPoint x="400" y="240" as="sourcePoint" />
            <mxPoint x="450" y="190" as="targetPoint" />
          </mxGeometry>
        </mxCell>
        <mxCell id="MSUiS18jvthD32c3BEqJ-150" value="" style="endArrow=none;html=1;rounded=0;entryX=0.5;entryY=1;entryDx=0;entryDy=0;exitX=1;exitY=0;exitDx=0;exitDy=0;" edge="1" parent="1" source="MSUiS18jvthD32c3BEqJ-141" target="MSUiS18jvthD32c3BEqJ-148">
          <mxGeometry width="50" height="50" relative="1" as="geometry">
            <mxPoint x="340" y="230" as="sourcePoint" />
            <mxPoint x="450" y="190" as="targetPoint" />
          </mxGeometry>
        </mxCell>
        <mxCell id="MSUiS18jvthD32c3BEqJ-153" value="&lt;b&gt;N&lt;/b&gt;" style="text;html=1;align=center;verticalAlign=middle;resizable=0;points=[];autosize=1;strokeColor=none;fillColor=none;" vertex="1" parent="1">
          <mxGeometry x="60" y="375" width="20" height="20" as="geometry" />
        </mxCell>
        <mxCell id="MSUiS18jvthD32c3BEqJ-154" value="&lt;b&gt;1&lt;/b&gt;" style="text;html=1;align=center;verticalAlign=middle;resizable=0;points=[];autosize=1;strokeColor=none;fillColor=none;" vertex="1" parent="1">
          <mxGeometry x="150" y="200" width="20" height="20" as="geometry" />
        </mxCell>
        <mxCell id="MSUiS18jvthD32c3BEqJ-155" value="&lt;b&gt;M&lt;/b&gt;" style="text;html=1;align=center;verticalAlign=middle;resizable=0;points=[];autosize=1;strokeColor=none;fillColor=none;" vertex="1" parent="1">
          <mxGeometry x="250" y="230" width="30" height="20" as="geometry" />
        </mxCell>
        <mxCell id="MSUiS18jvthD32c3BEqJ-156" value="&lt;b&gt;N&lt;/b&gt;" style="text;html=1;align=center;verticalAlign=middle;resizable=0;points=[];autosize=1;strokeColor=none;fillColor=none;" vertex="1" parent="1">
          <mxGeometry x="280" y="125" width="20" height="20" as="geometry" />
        </mxCell>
        <mxCell id="MSUiS18jvthD32c3BEqJ-157" value="&lt;b&gt;1&lt;/b&gt;" style="text;html=1;align=center;verticalAlign=middle;resizable=0;points=[];autosize=1;strokeColor=none;fillColor=none;" vertex="1" parent="1">
          <mxGeometry x="530" y="125" width="20" height="20" as="geometry" />
        </mxCell>
        <mxCell id="MSUiS18jvthD32c3BEqJ-158" value="&lt;b&gt;1&lt;/b&gt;" style="text;html=1;align=center;verticalAlign=middle;resizable=0;points=[];autosize=1;strokeColor=none;fillColor=none;" vertex="1" parent="1">
          <mxGeometry x="440" y="300" width="20" height="20" as="geometry" />
        </mxCell>
        <mxCell id="MSUiS18jvthD32c3BEqJ-159" value="&lt;b&gt;1&lt;/b&gt;" style="text;html=1;align=center;verticalAlign=middle;resizable=0;points=[];autosize=1;strokeColor=none;fillColor=none;" vertex="1" parent="1">
          <mxGeometry x="530" y="180" width="20" height="20" as="geometry" />
        </mxCell>
        <mxCell id="MSUiS18jvthD32c3BEqJ-160" value="&lt;b&gt;N&lt;/b&gt;" style="text;html=1;align=center;verticalAlign=middle;resizable=0;points=[];autosize=1;strokeColor=none;fillColor=none;" vertex="1" parent="1">
          <mxGeometry x="680" y="200" width="20" height="20" as="geometry" />
        </mxCell>
        <mxCell id="MSUiS18jvthD32c3BEqJ-161" value="&lt;b&gt;M&lt;/b&gt;" style="text;html=1;align=center;verticalAlign=middle;resizable=0;points=[];autosize=1;strokeColor=none;fillColor=none;" vertex="1" parent="1">
          <mxGeometry x="675" y="320" width="30" height="20" as="geometry" />
        </mxCell>
        <mxCell id="MSUiS18jvthD32c3BEqJ-152" value="&lt;b&gt;1&lt;/b&gt;" style="text;html=1;align=center;verticalAlign=middle;resizable=0;points=[];autosize=1;strokeColor=none;fillColor=none;" vertex="1" parent="1">
          <mxGeometry x="70" y="215" width="20" height="20" as="geometry" />
        </mxCell>
        <mxCell id="MSUiS18jvthD32c3BEqJ-162" value="" style="endArrow=none;html=1;rounded=0;entryX=0.5;entryY=1;entryDx=0;entryDy=0;exitX=0.5;exitY=0;exitDx=0;exitDy=0;exitPerimeter=0;" edge="1" parent="1" source="MSUiS18jvthD32c3BEqJ-33" target="MSUiS18jvthD32c3BEqJ-1">
          <mxGeometry width="50" height="50" relative="1" as="geometry">
            <mxPoint x="60" y="280" as="sourcePoint" />
            <mxPoint x="120" y="180" as="targetPoint" />
          </mxGeometry>
        </mxCell>
        <mxCell id="MSUiS18jvthD32c3BEqJ-164" value="CANCELS" style="rhombus;whiteSpace=wrap;html=1;" vertex="1" parent="1">
          <mxGeometry x="130" y="270" width="80" height="80" as="geometry" />
        </mxCell>
        <mxCell id="MSUiS18jvthD32c3BEqJ-165" value="" style="endArrow=none;html=1;rounded=0;entryX=0.5;entryY=1;entryDx=0;entryDy=0;exitX=0.5;exitY=0;exitDx=0;exitDy=0;" edge="1" parent="1" source="MSUiS18jvthD32c3BEqJ-164" target="MSUiS18jvthD32c3BEqJ-1">
          <mxGeometry width="50" height="50" relative="1" as="geometry">
            <mxPoint x="70" y="280" as="sourcePoint" />
            <mxPoint x="130" y="190" as="targetPoint" />
          </mxGeometry>
        </mxCell>
        <mxCell id="MSUiS18jvthD32c3BEqJ-166" value="" style="endArrow=none;html=1;rounded=0;entryX=0.5;entryY=1;entryDx=0;entryDy=0;exitX=0.5;exitY=0;exitDx=0;exitDy=0;" edge="1" parent="1" source="MSUiS18jvthD32c3BEqJ-34" target="MSUiS18jvthD32c3BEqJ-164">
          <mxGeometry width="50" height="50" relative="1" as="geometry">
            <mxPoint x="80" y="290" as="sourcePoint" />
            <mxPoint x="140" y="200" as="targetPoint" />
          </mxGeometry>
        </mxCell>
        <mxCell id="MSUiS18jvthD32c3BEqJ-168" value="&lt;b&gt;1&lt;/b&gt;" style="text;html=1;align=center;verticalAlign=middle;resizable=0;points=[];autosize=1;strokeColor=none;fillColor=none;" vertex="1" parent="1">
          <mxGeometry x="140" y="240" width="20" height="20" as="geometry" />
        </mxCell>
        <mxCell id="MSUiS18jvthD32c3BEqJ-169" value="&lt;b&gt;M&lt;/b&gt;" style="text;html=1;align=center;verticalAlign=middle;resizable=0;points=[];autosize=1;strokeColor=none;fillColor=none;" vertex="1" parent="1">
          <mxGeometry x="145" y="380" width="30" height="20" as="geometry" />
        </mxCell>
        <mxCell id="MSUiS18jvthD32c3BEqJ-170" value="&lt;b&gt;1&lt;/b&gt;" style="text;html=1;align=center;verticalAlign=middle;resizable=0;points=[];autosize=1;strokeColor=none;fillColor=none;" vertex="1" parent="1">
          <mxGeometry x="230" y="450" width="20" height="20" as="geometry" />
        </mxCell>
        <mxCell id="MSUiS18jvthD32c3BEqJ-171" value="&lt;b&gt;1&lt;/b&gt;" style="text;html=1;align=center;verticalAlign=middle;resizable=0;points=[];autosize=1;strokeColor=none;fillColor=none;" vertex="1" parent="1">
          <mxGeometry x="390" y="475" width="20" height="20" as="geometry" />
        </mxCell>
        <mxCell id="MSUiS18jvthD32c3BEqJ-172" value="LICENSE_NO" style="ellipse;whiteSpace=wrap;html=1;" vertex="1" parent="1">
          <mxGeometry x="272.5" y="395" width="97.5" height="40" as="geometry" />
        </mxCell>
        <mxCell id="MSUiS18jvthD32c3BEqJ-173" value="" style="line;strokeWidth=2;html=1;" vertex="1" parent="1">
          <mxGeometry x="280" y="420" width="80" height="10" as="geometry" />
        </mxCell>
      </root>
    </mxGraphModel>
  </diagram>
</mxfile>
